<svg xmlns="http://www.w3.org/2000/svg" viewBox="0 0 1080 1080"><defs><style>.cls-1{fill:#100e0c;}.cls-2{fill:#324351;}.cls-3{fill:#73cdda;}.cls-4,.cls-5{fill:#dab673;}.cls-5{font-size:37.13px;font-family:Inter24pt-Medium, "Inter 24pt";font-weight:500;letter-spacing:0.2em;}.cls-6{letter-spacing:0.12em;}</style></defs><g id="Logo_2"><rect id="Background" class="cls-1" x="-0.58" y="0.28" width="1079.66" height="1084.32"/><g id="Emblem"><path class="cls-2" d="M137.24,525.31H161.7a4.44,4.44,0,0,0,1.6-.25,11.11,11.11,0,0,0,1.17-.5,2.36,2.36,0,0,1,1-.25,1.29,1.29,0,0,1,.92.32,2.28,2.28,0,0,1,.52,1.15l2,11a1.3,1.3,0,0,1,0,1,.87.87,0,0,1-.65.46,1.11,1.11,0,0,1-.79-.1,1.35,1.35,0,0,1-.56-.68,43.23,43.23,0,0,0-3.23-6.38,8.77,8.77,0,0,0-2.74-2.9,5.86,5.86,0,0,0-2.93-.75h-3.79v38.16a1.15,1.15,0,0,0,.36.89,2.23,2.23,0,0,0,1.05.48l2.1.41c.61.17.91.49.91,1s-.4.88-1.19.88H141.65a1.35,1.35,0,0,1-.89-.25.8.8,0,0,1-.3-.63c0-.48.31-.8.91-1l2.13-.41a2.11,2.11,0,0,0,1-.48,1.18,1.18,0,0,0,.35-.89V527.38h-3.79a5.53,5.53,0,0,0-2.87.8,9.4,9.4,0,0,0-2.75,3,45.58,45.58,0,0,0-3.25,6.27,1.44,1.44,0,0,1-.59.68,1.09,1.09,0,0,1-.78.1.85.85,0,0,1-.63-.46,1.34,1.34,0,0,1-.06-1l2-11a2.28,2.28,0,0,1,.52-1.15,1.29,1.29,0,0,1,.92-.32,2.13,2.13,0,0,1,.93.25,9.46,9.46,0,0,0,1.13.5A4.16,4.16,0,0,0,137.24,525.31Z"/><path class="cls-3" d="M220,541.54a12.64,12.64,0,0,1-2,7.19,13.13,13.13,0,0,1-5.69,4.71,20.35,20.35,0,0,1-8.53,1.66,23.15,23.15,0,0,1-6.16-.75,16.92,16.92,0,0,1-4.84-2.16l.32-1.72a14.13,14.13,0,0,0,2.6,1.42,12.22,12.22,0,0,0,2.69.8,15.32,15.32,0,0,0,2.79.25,9.43,9.43,0,0,0,5-1.34,9.19,9.19,0,0,0,3.46-4,14.26,14.26,0,0,0,1.27-6.31,17.09,17.09,0,0,0-1.53-7.53A11.35,11.35,0,0,0,205,529a11.92,11.92,0,0,0-6.31-1.67h-2.57v38.25a1.24,1.24,0,0,0,.34.89,1.84,1.84,0,0,0,1,.48l2.72.41a1.1,1.1,0,0,1,.72.3.93.93,0,0,1,.22.67.81.81,0,0,1-.28.63,1.28,1.28,0,0,1-.88.25H183.66a1.31,1.31,0,0,1-.89-.25.8.8,0,0,1-.3-.63c0-.48.29-.8.88-1l2.19-.44a2,2,0,0,0,1-.48,1.17,1.17,0,0,0,.33-.86V529a1.26,1.26,0,0,0-.33-.91,2,2,0,0,0-1-.5l-2.25-.44a1,1,0,0,1-.85-1,.79.79,0,0,1,.28-.64,1.34,1.34,0,0,1,.88-.24h15.22a28.11,28.11,0,0,1,11.25,2.06,16.84,16.84,0,0,1,7.3,5.71A14.4,14.4,0,0,1,220,541.54Z"/><path class="cls-2" d="M271.31,557a11.9,11.9,0,0,1-1.43,4.94,14.3,14.3,0,0,1-3.51,4.24,16.85,16.85,0,0,1-5.34,3,20.67,20.67,0,0,1-6.92,1.09,21.53,21.53,0,0,1-11.31-2.86,19.19,19.19,0,0,1-7.33-7.94,25.73,25.73,0,0,1-2.57-11.75,27.33,27.33,0,0,1,1.55-9.37,22.44,22.44,0,0,1,4.37-7.39,19.62,19.62,0,0,1,6.67-4.85,20.41,20.41,0,0,1,8.43-1.73A16.87,16.87,0,0,1,259,525a15.94,15.94,0,0,1,3.11,1.28,3.86,3.86,0,0,0,1.59.64,1.6,1.6,0,0,0,1.14-.59l1.08-1.19a1.47,1.47,0,0,1,1.06-.6.85.85,0,0,1,.6.24,1.72,1.72,0,0,1,.41.83l3.19,11.49a1.06,1.06,0,0,1-.06.88,1.09,1.09,0,0,1-.69.5,1.28,1.28,0,0,1-.89-.13,1.38,1.38,0,0,1-.61-.75,24.18,24.18,0,0,0-3.79-6.45,13,13,0,0,0-4.52-3.48,12.61,12.61,0,0,0-5.16-1.06,10.72,10.72,0,0,0-5.16,1.27,12.25,12.25,0,0,0-4.12,3.68,18.12,18.12,0,0,0-2.71,5.84,33.34,33.34,0,0,0,1,19.11,15.31,15.31,0,0,0,5.36,6.92,13.44,13.44,0,0,0,7.8,2.34,12.19,12.19,0,0,0,7.53-2.34,12.89,12.89,0,0,0,4.5-6.53,1.47,1.47,0,0,1,.47-.64.74.74,0,0,1,.59-.11.59.59,0,0,1,.46.26A1.16,1.16,0,0,1,271.31,557Z"/><g id="Crown"><path class="cls-4" d="M218.46,512.17c-5.17-2.57-11.3-3.2-17-3.3-6.19-.12-12.61.39-18.47,2.52h3.51c-.78-4.48-2.6-8.84-4.28-13.06q-1.65-4.15-3.46-8.25l-5,1.61c3.8,2.82,7.88,5.73,12.31,7.47a9.75,9.75,0,0,0,11.5-3.47c2.37-3.18,3.38-7.05,4.7-10.73l-5.16,1.12c.76,5.45,3.22,13,9.59,13.81,3.85.47,7.58-1.42,10.79-3.32a47.21,47.21,0,0,0,8.44-6.37l-4.93.57a111,111,0,0,0-6.66,16.45c-.37,1.19,4.69.55,5.13-.86a111,111,0,0,1,6.66-16.45c.42-.82-1.52-.69-1.78-.66a5.5,5.5,0,0,0-3.14,1.24,42.41,42.41,0,0,1-6.6,5.1,24,24,0,0,1-3.44,1.89c-.09,0-.74.22-.36.16a2,2,0,0,1-.43,0,5.05,5.05,0,0,1-1.61-.47,9.56,9.56,0,0,1-4.34-5.14,28.23,28.23,0,0,1-2.13-7.36c-.19-1.34-4.81.15-5.16,1.12-1.1,3.07-2,6.29-3.62,9.12a13.11,13.11,0,0,1-1.39,1.93c-.24.27-.56.52-.78.81-.11.09-.22.18-.34.26l1.26-.32c-.15.36-3.45-1.24-3.84-1.44a75.33,75.33,0,0,1-9.8-6.31c-.79-.59-5.58.36-5,1.6,1.22,2.73,2.36,5.48,3.47,8.25,1.67,4.22,3.49,8.58,4.27,13.06.19,1,3.13.14,3.52,0a20.06,20.06,0,0,1,2.39-.69,34.44,34.44,0,0,1,3.77-.62,55.74,55.74,0,0,1,7.86-.32c4.89.14,10.27.63,14.72,2.85a4.51,4.51,0,0,0,3.36-.22c.24-.09,2.39-1.16,1.52-1.6Z"/></g><g id="Hand"><path class="cls-4" d="M168.43,582.79c3.56,3.47,8.06,5.51,12.76,7a57.77,57.77,0,0,0,16.09,2.65,53,53,0,0,0,23.42-4.63,47,47,0,0,0,6.09-3.72l3.33-2.12-4.21-1.54a103.85,103.85,0,0,1-10.24,14.43c-2.64,3.24-6,8.43-10.83,7.86-2.58-.31-5-1.54-7.36-2.45a23.55,23.55,0,0,0-8.66-1.61c-5.86.07-11.54,2.39-16.7,5a92.41,92.41,0,0,0-16.43,10.58c-.87.69-1.32,2-.27,2.74a3.37,3.37,0,0,0,3.73-.3,85.87,85.87,0,0,1,14.48-9.47c4.8-2.47,10.29-5.06,15.84-4.6s10.3,4.4,16.09,4.06,9.95-4.71,13.45-9a116.24,116.24,0,0,0,11.87-16.62,1.54,1.54,0,0,0-1-2.1,3.71,3.71,0,0,0-3.22.56c-2.25,1.42-4.5,2.84-6.71,4.33a23.73,23.73,0,0,1-5.61,2.42,47.31,47.31,0,0,1-5.74,1.58,42.21,42.21,0,0,1-7.42.73A54.14,54.14,0,0,1,186.61,587c-4.71-1.24-9.88-3-13.44-6.49a3.06,3.06,0,0,0-3.53-.42c-.78.39-2.17,1.79-1.21,2.73Z"/></g></g><g id="Text"><text class="cls-5" transform="translate(306.12 561.39)">THEPRIVILEGEDCOM<tspan class="cls-6" x="489.56" y="0">P</tspan><tspan x="517.49" y="0">ANY</tspan></text></g></g></svg>