<svg id="Logo_1" xmlns="http://www.w3.org/2000/svg" viewBox="0 0 1082.16 1084.32"><defs><style>.cls-1{fill:#100e0c;}.cls-2{fill:#324351;}.cls-3{fill:#73cdda;}.cls-4{fill:#dab673;}</style></defs><rect id="Background" class="cls-1" width="1082.16" height="1084.32"/><g id="Text"><path class="cls-2" d="M357.32,503h79.11a14.58,14.58,0,0,0,5.17-.81c1.41-.54,2.68-1.08,3.8-1.62a7.12,7.12,0,0,1,3.09-.81,4.17,4.17,0,0,1,3,1,7.46,7.46,0,0,1,1.67,3.75l6.59,35.56a4.3,4.3,0,0,1-.1,3.09,2.9,2.9,0,0,1-2.13,1.47,3.55,3.55,0,0,1-2.53-.31,4.38,4.38,0,0,1-1.83-2.23q-5.86-13.67-10.43-20.61t-8.86-9.37a18.94,18.94,0,0,0-9.47-2.43H412.12V633.08a3.75,3.75,0,0,0,1.16,2.89,7.43,7.43,0,0,0,3.4,1.57l6.78,1.31q2.94.81,2.94,3.14,0,2.84-3.85,2.84H371.6a4.41,4.41,0,0,1-2.89-.81,2.55,2.55,0,0,1-1-2q0-2.32,2.94-3.14l6.89-1.31a7,7,0,0,0,3.34-1.57,3.83,3.83,0,0,0,1.11-2.89V509.7H369.78a17.72,17.72,0,0,0-9.27,2.58q-4.31,2.58-8.92,9.57a146.32,146.32,0,0,0-10.48,20.26,4.82,4.82,0,0,1-1.93,2.23,3.55,3.55,0,0,1-2.53.31,2.82,2.82,0,0,1-2-1.47,4.57,4.57,0,0,1-.21-3.09L341,504.53a7.46,7.46,0,0,1,1.67-3.75,4.18,4.18,0,0,1,3-1,6.57,6.57,0,0,1,3,.81,38.17,38.17,0,0,0,3.64,1.62A13.86,13.86,0,0,0,357.32,503Z"/><path class="cls-3" d="M624.84,555.49q0,13.37-6.58,23.24A42.75,42.75,0,0,1,599.87,594q-11.79,5.37-27.6,5.37a74.54,74.54,0,0,1-19.9-2.43,54.4,54.4,0,0,1-15.65-7l1-5.57a46.76,46.76,0,0,0,8.41,4.6,41.46,41.46,0,0,0,8.71,2.59,50.24,50.24,0,0,0,9,.81A30.29,30.29,0,0,0,580.07,588a29.74,29.74,0,0,0,11.19-12.81q4.11-8.46,4.11-20.41,0-14.19-5-24.37a36.63,36.63,0,0,0-13.82-15.6,38.39,38.39,0,0,0-20.42-5.42h-8.3V633.08A4,4,0,0,0,549,636a6,6,0,0,0,3.35,1.57l8.81,1.31a3.77,3.77,0,0,1,2.33,1,3.07,3.07,0,0,1,.71,2.17,2.63,2.63,0,0,1-.91,2,4.21,4.21,0,0,1-2.84.81h-53a4.41,4.41,0,0,1-2.89-.81,2.55,2.55,0,0,1-1-2c0-1.55,1-2.6,2.84-3.14l7.09-1.41a6.79,6.79,0,0,0,3.29-1.57,3.77,3.77,0,0,0,1.06-2.79V515a4.07,4.07,0,0,0-1.06-2.94,6.36,6.36,0,0,0-3.19-1.62L506.33,509c-1.83-.54-2.74-1.59-2.74-3.14a2.56,2.56,0,0,1,.91-2.08,4.44,4.44,0,0,1,2.84-.76h49.23q21.07,0,36.37,6.64t23.6,18.48A46.54,46.54,0,0,1,624.84,555.49Z"/><path class="cls-2" d="M790.87,605.42a38.49,38.49,0,0,1-4.61,16,46.77,46.77,0,0,1-11.35,13.73,55,55,0,0,1-17.27,9.62,66.89,66.89,0,0,1-22.38,3.54q-21.18,0-36.57-9.26A62,62,0,0,1,675,613.33q-8.29-16.41-8.3-38a88.06,88.06,0,0,1,5-30.29,72.29,72.29,0,0,1,14.13-23.9,63.7,63.7,0,0,1,21.58-15.71,66.07,66.07,0,0,1,27.25-5.57A54.81,54.81,0,0,1,751.06,502a53.52,53.52,0,0,1,10.08,4.15c2.39,1.39,4.1,2.08,5.11,2.08a5,5,0,0,0,3.7-1.93q1.77-1.92,3.5-3.84a4.74,4.74,0,0,1,3.44-1.93,2.74,2.74,0,0,1,1.93.76,5.79,5.79,0,0,1,1.31,2.68l10.33,37.18a3.41,3.41,0,0,1-.2,2.84,3.47,3.47,0,0,1-2.23,1.62,4.12,4.12,0,0,1-2.88-.41,4.64,4.64,0,0,1-2-2.43q-5.48-13.07-12.26-20.87a42.18,42.18,0,0,0-14.58-11.24,41,41,0,0,0-16.72-3.44,34.63,34.63,0,0,0-16.66,4.1,39.56,39.56,0,0,0-13.32,11.9,58.58,58.58,0,0,0-8.76,18.89,94,94,0,0,0-3.09,25.18q0,21.78,6.28,36.62t17.32,22.38a43.64,43.64,0,0,0,25.22,7.55q14.28,0,24.36-7.55t14.54-21.12A5.15,5.15,0,0,1,787,603a2.5,2.5,0,0,1,1.92-.35,1.8,1.8,0,0,1,1.47.86A3.53,3.53,0,0,1,790.87,605.42Z"/><path class="cls-4" d="M620,460.52c-12.62-6.39-27.14-8.75-41.1-10a209.69,209.69,0,0,0-48.8,1.38A124.14,124.14,0,0,0,505.29,458l11.37,0a110.44,110.44,0,0,0-3.83-14.74c-1.88-6-4-11.82-6.19-17.66-3.84-10.19-8-20.28-12.29-30.28-.9-2.08-1.8-4.16-2.73-6.23l-16.27,5.19a279.68,279.68,0,0,0,26.17,17.35c3.07,1.78,6.2,3.48,9.43,5,4.32,2,8.85,3.88,13.65,4.19a31.84,31.84,0,0,0,22.76-7.93A45.22,45.22,0,0,0,556,401.7c5.28-9.1,8-19.38,11.56-29.21l-16.68,3.64a89.64,89.64,0,0,0,5.94,21.61c2.66,6.6,6.09,13,11.78,17.51,16.34,12.92,38.19,1.36,53.12-8.23a151.78,151.78,0,0,0,22.35-17.59l-15.93,1.86a345.39,345.39,0,0,0-21.54,53.2c-1,3.05,5.42,2.28,6.82,2a21.89,21.89,0,0,0,6.38-2c1.13-.61,3-1.46,3.39-2.78a346.39,346.39,0,0,1,21.54-53.2c.53-1.06-.63-1.8-1.45-2a11.47,11.47,0,0,0-4.33-.12c-3.5.41-7.54,1.52-10.15,4q-2.73,2.59-5.59,5l-1.52,1.29-.28.23c.61-.5-.13.1-.28.22-1,.84-2.08,1.66-3.13,2.46a142.21,142.21,0,0,1-12.63,8.57l-1.52.9c-.5.3-.87.19.43-.24a6.36,6.36,0,0,0-.77.43c-1.16.66-2.32,1.3-3.5,1.92s-2.15,1.11-3.25,1.62a8.67,8.67,0,0,0-.82.38c1.73-1,1.21-.52.67-.3-.35.14-2,.5-2.12.79,0-.06,2.27-.65.92-.29l-.87.24c-1.33.37.88-.22,1-.2a4.52,4.52,0,0,0-.88.17c-1.32.27.72,0,.75-.07a3.61,3.61,0,0,1-.89.07,4.47,4.47,0,0,0-.89,0c1.12,0,1.33,0,.63,0l-.37,0c-.25,0-1.29-.28-1.46-.16.26-.19,1.18.23.4.05l-.71-.16a23,23,0,0,1-3.1-1c-.76-.31-.11,0,0,0-.33-.16-.66-.32-1-.5-.54-.29-1.06-.6-1.58-.93a25.72,25.72,0,0,1-2.68-2,30.77,30.77,0,0,1-5.09-5.48l.51.7c-3.29-4.6-5.44-10.05-7.3-15.36a87,87,0,0,1-4.25-17.12c-.14-1.08-2.36-1.36-3-1.4a18.1,18.1,0,0,0-5,.48,20.59,20.59,0,0,0-5.25,1.78c-1.18.63-2.91,1.45-3.39,2.78-3,8.28-5.4,16.79-9.21,24.74a62.22,62.22,0,0,1-3.07,5.68c-.52.84-1.06,1.68-1.64,2.49.46-.64.06-.09,0,0l-.48.63c-.36.46-.73.92-1.1,1.37-.67.8-1.36,1.59-2.09,2.34-.32.32-.64.64-1,.95a3.79,3.79,0,0,1-.58.52l.41-.33c-.15.12-.3.24-.46.35-.36.26-.73.5-1.1.75-.73.48,1.38-.71.58-.36-.31.14-1.16.54.11,0,2-.87-1.32.37,1-.38,1.44-.46.71-.23.38-.14a15.22,15.22,0,0,1,2.67-.46c-1.54.15,1.51.19,0,0a3.73,3.73,0,0,1-.92-.09s1,.21.33.05-1.22-.26-1.82-.43c-1.21-.34-2.4-.75-3.57-1.2-.61-.23-1.21-.47-1.81-.73l-1-.43c-.16-.07-.74-.28-.12-.05s-.18-.09-.26-.13c-3-1.41-5.91-3-8.77-4.65-5.85-3.39-11.53-7.08-17.1-10.9-3.1-2.13-6.19-4.29-9.21-6.53-1.08-.8-3.1-.8-4.32-.71a23.42,23.42,0,0,0-5.44,1.08,15.85,15.85,0,0,0-4.6,2.1c-.68.5-2.38,1.66-1.9,2.72,2.6,5.82,5.08,11.7,7.52,17.59,4.67,11.32,9.18,22.75,13,34.39a121.25,121.25,0,0,1,4.53,16.94c.25,1.46,2.9,1.41,3.92,1.41a21.63,21.63,0,0,0,7.45-1.44c.61-.23,1.23-.44,1.85-.65.39-.14,1.88-.61,0,0s-.23.08.21-.05c1.41-.43,2.83-.81,4.26-1.16l2.17-.52c1.27-.29-2.46.53-.93.21l1.35-.28c1.66-.34,3.31-.63,5-.9s3.35-.51,5-.73l1.17-.14c1.17-.15-1.14.12-1.08.12a5.08,5.08,0,0,0,.67-.07l2.72-.28c3.6-.34,7.21-.57,10.83-.71,1.9-.07,3.81-.12,5.71-.14h1.26c1.62,0-1.64,0,0,0l2.88,0q5.64.11,11.27.52c3.61.27,7.21.63,10.79,1.12l2.53.37c.2,0,1.79.28.77.11-.86-.14-.25,0-.07,0l1,.17c1.67.29,3.33.61,5,1a104.8,104.8,0,0,1,10.4,2.76c1.56.51,3.12,1.06,4.65,1.68a22.71,22.71,0,0,0,2.22.94l-.43-.2.58.28c.39.18.77.37,1.15.57,3.19,1.61,7.7.53,10.86-.73,1.58-.62,3.55-1.35,4.66-2.68.5-.61,1.38-1.9.24-2.48Z"/><path class="cls-4" d="M458.18,688.88a71.52,71.52,0,0,0,9.6,8.11A94.56,94.56,0,0,0,479,703.47,144.31,144.31,0,0,0,500.72,712c17.51,5.48,35.65,7.84,53.95,8.22a163.12,163.12,0,0,0,30.9-2.07,175.19,175.19,0,0,0,42.61-13.39,40.33,40.33,0,0,0,6.32-3.45c1.17-.8,2.35-1.59,3.53-2.37,2.51-1.67,5-3.31,7.57-5q5.7-3.68,11.45-7.29l.64-.4-13.64-5q-3.36,6-7.11,11.82l1-1.54c-9.92,15.39-21.4,29.71-33.08,43.79a118.29,118.29,0,0,1-7.93,8.81l-1,1c1.81-1.79.4-.39,0,0-.75.67-1.5,1.33-2.28,2a57,57,0,0,1-4.62,3.38c-1.07.7.86-.52.85-.51a4.5,4.5,0,0,1-.67.39c-.34.2-.68.38-1,.57-.91.49-1.84.94-2.8,1.34-.37.16-2,.79-.35.17s0,0-.38.11c-.92.29-1.87.54-2.82.75l-.77.15c-.88.18,1.5-.21,1.31-.22a11.79,11.79,0,0,0-1.65.2c-1,.09-2,.1-3.07.12-.85,0,1.26.07,1.14,0a3.58,3.58,0,0,0-.81,0l-1.42-.12c-1-.11-2-.25-3-.43l-1.6-.33c-1.31-.27,1.65.43.35.09-1.07-.28-2.13-.57-3.19-.9-1.94-.6-3.85-1.29-5.75-2-3.91-1.49-7.77-3.13-11.69-4.61a83.28,83.28,0,0,0-13.85-4,69.31,69.31,0,0,0-14.6-1c-19.12.49-37.52,8.18-54.33,16.73a296.63,296.63,0,0,0-46.72,29.49c-1.73,1.33-3.45,2.69-5.15,4.06a7.27,7.27,0,0,0-2.91,4.55,4.73,4.73,0,0,0,2.06,4.31c3.5,2.28,8.84,1.62,12-1q11-8.88,22.83-16.66,2.94-1.92,5.91-3.78l.62-.38c-1.34.82.57-.34.82-.49,1-.63,2.07-1.24,3.11-1.85q6.06-3.55,12.27-6.79c4.22-2.2,8.49-4.31,12.82-6.27,2.08-.94,4.18-1.85,6.3-2.71,1.14-.47,2.28-.91,3.42-1.35,1.39-.53-2.17.79-.24.09l2-.68a103.34,103.34,0,0,1,13.61-3.72,9.38,9.38,0,0,0,1.77-.33c.13-.06-2.09.33-1.17.2l.89-.14c1.18-.18,2.37-.33,3.56-.45a66.33,66.33,0,0,1,6.91-.34,8.81,8.81,0,0,1,.89,0c-.07,0-2.17-.08-.83,0l1.56.08c1.19.08,2.37.19,3.55.34s2.22.31,3.32.52l1.77.36c.48.11,1.37.42-.66-.16l.81.21a108.92,108.92,0,0,1,12.61,4.42c8.39,3.36,17.09,7.07,26.25,7.48A42.23,42.23,0,0,0,588.88,764a52.5,52.5,0,0,0,13.89-7.37c7.25-5.36,13.1-12.34,18.8-19.26,12.57-15.26,24.75-30.89,35-47.84q1.83-3,3.57-6.14c1.54-2.74-.54-5.89-3.22-6.78-3.66-1.21-7.26-.17-10.41,1.8-6.78,4.26-13.53,8.56-20.19,13l-3,2-.68.47c-1,.73,2.14-1.1.5-.4-.9.39-1.78.82-2.67,1.22Q615.34,697,610.1,699l-1,.38,1.37-.51-.8.29c-.78.29-1.56.57-2.35.84q-2.46.86-4.93,1.62-4.2,1.32-8.48,2.39c-2.54.63-5.1,1.2-7.67,1.69l-1.8.33c-.7.12-2.08.33,1.12-.19l-.86.14c-1.11.18-2.21.34-3.32.49q-5.73.76-11.51,1c-1.58.08-3.16.15-4.75.18s-3.48,0-5.23,0l-2.85,0c-.47,0-.95,0-1.42,0,2.7,0,.38,0-.21,0a194.24,194.24,0,0,1-22.59-2q-6.3-.95-12.52-2.37c-.48-.11-2.07-.59.1,0-.6-.18-1.22-.3-1.83-.46-1.07-.27-2.14-.55-3.2-.85q-3-.81-5.92-1.76a143,143,0,0,1-21.76-8.72l1.63.84a70.54,70.54,0,0,1-16.42-11.5l1.22,1.17-.6-.59a7.77,7.77,0,0,0-4.79-2.48,11.81,11.81,0,0,0-6.62,1.14c-1.7.9-3.57,2.18-4.29,4-.56,1.44-.87,3.53.37,4.76Z"/></g></svg>