<svg xmlns="http://www.w3.org/2000/svg" viewBox="0 0 1200 675" role="img" aria-labelledby="title desc">
  <title id="title">Original demo landscape avatar upload</title>
  <desc id="desc">A wide blue demo image intentionally shaped like a landscape upload.</desc>
  <defs>
    <linearGradient id="sky" x1="0" x2="1" y1="0" y2="1">
      <stop offset="0" stop-color="#dbeafe"/>
      <stop offset="0.55" stop-color="#f8fafc"/>
      <stop offset="1" stop-color="#cffafe"/>
    </linearGradient>
    <filter id="shadow" x="-20%" y="-20%" width="140%" height="150%">
      <feDropShadow dx="0" dy="22" stdDeviation="18" flood-color="#1d4ed8" flood-opacity="0.16"/>
    </filter>
  </defs>
  <rect width="1200" height="675" rx="48" fill="url(#sky)"/>
  <path d="M0 484c160-62 316-72 468-29 190 54 377 49 562-13 72-24 129-32 170-25v258H0z" fill="#dbeafe"/>
  <circle cx="965" cy="126" r="66" fill="#fff" opacity="0.82"/>
  <g filter="url(#shadow)" transform="translate(300 50)">
    <path d="M186 396c-24-76-2-152 58-194 67-47 159-36 215 25 55 60 62 153 16 221-50 73-163 91-232 38-27-21-46-50-57-90z" fill="#ffe0c7" stroke="#17231f" stroke-width="10"/>
    <path d="M132 253c46-101 171-136 264-73 55 38 83 93 93 162-76-66-170-76-282-29-46 19-80 1-75-60z" fill="#75a7ff"/>
    <path d="M164 304c-28 12-46 37-49 77-3 43 20 71 58 84 23-40 20-102-9-161z" fill="#75a7ff"/>
    <path d="M478 305c32 13 54 40 60 82 6 42-17 70-56 83-23-39-24-96-4-165z" fill="#75a7ff"/>
    <ellipse cx="280" cy="348" rx="52" ry="58" fill="#fff" stroke="#17231f" stroke-width="8"/>
    <ellipse cx="396" cy="345" rx="52" ry="58" fill="#fff" stroke="#17231f" stroke-width="8"/>
    <circle cx="294" cy="359" r="19" fill="#17231f"/>
    <circle cx="382" cy="356" r="19" fill="#17231f"/>
    <circle cx="301" cy="350" r="7" fill="#fff"/>
    <circle cx="389" cy="347" r="7" fill="#fff"/>
    <path d="M323 423c27 16 61 16 91 0" fill="none" stroke="#17231f" stroke-width="9" stroke-linecap="round"/>
    <path d="M222 544c66-42 198-42 268 0 32 19 54 48 67 83H157c14-36 36-64 65-83z" fill="#315f93"/>
  </g>
  <text x="52" y="610" fill="#334155" font-family="Arial, sans-serif" font-size="32" font-weight="700">Landscape upload test</text>
</svg>
