<svg xmlns="http://www.w3.org/2000/svg" viewBox="0 0 640 800" role="img" aria-labelledby="title desc">
  <title id="title">Original demo portrait avatar</title>
  <desc id="desc">A stylized pink career demo character in a portrait frame.</desc>
  <defs>
    <linearGradient id="bg" x1="0" x2="1" y1="0" y2="1">
      <stop offset="0" stop-color="#ffe6ef"/>
      <stop offset="1" stop-color="#f7fbff"/>
    </linearGradient>
    <filter id="softShadow" x="-20%" y="-20%" width="140%" height="150%">
      <feDropShadow dx="0" dy="28" stdDeviation="22" flood-color="#93385c" flood-opacity="0.18"/>
    </filter>
  </defs>
  <rect width="640" height="800" rx="56" fill="url(#bg)"/>
  <circle cx="118" cy="130" r="68" fill="#fff" opacity="0.72"/>
  <circle cx="538" cy="672" r="96" fill="#fbcfe8" opacity="0.38"/>
  <g filter="url(#softShadow)">
    <path d="M190 506c-26-74-16-164 31-221 46-57 126-76 195-47 78 32 118 112 112 194-5 73-42 137-100 172-68 42-198 12-238-98z" fill="#f39ab9"/>
    <path d="M170 312c34-96 137-160 237-128 65 21 112 76 134 143-50-32-105-43-164-32-86 16-149 59-207 17z" fill="#e24d82"/>
    <path d="M228 468c-18-92 26-170 98-190 79-22 158 28 173 115 16 92-37 172-121 185-74 12-135-36-150-110z" fill="#ffd8c4" stroke="#17231f" stroke-width="10"/>
    <path d="M246 339c44-52 128-78 222-34-40-69-121-93-194-57-47 23-71 56-28 91z" fill="#d93672"/>
    <ellipse cx="315" cy="432" rx="50" ry="58" fill="#fff" stroke="#17231f" stroke-width="8"/>
    <ellipse cx="425" cy="425" rx="50" ry="58" fill="#fff" stroke="#17231f" stroke-width="8"/>
    <circle cx="326" cy="443" r="19" fill="#17231f"/>
    <circle cx="411" cy="438" r="19" fill="#17231f"/>
    <circle cx="333" cy="435" r="7" fill="#fff"/>
    <circle cx="418" cy="430" r="7" fill="#fff"/>
    <path d="M360 493c22 12 46 11 68-4" fill="none" stroke="#17231f" stroke-width="9" stroke-linecap="round"/>
    <path d="M218 500c-42 26-63 70-51 122 45-8 81-34 103-78z" fill="#e24d82"/>
    <path d="M498 493c46 22 74 59 76 112-46 0-84-22-114-66z" fill="#e24d82"/>
    <path d="M250 654c56-36 160-38 220 0 30 19 54 51 68 91H186c13-40 35-72 64-91z" fill="#304f47"/>
    <path d="M278 652c49 28 118 29 166 0" fill="none" stroke="#7fb6a6" stroke-width="18" stroke-linecap="round"/>
  </g>
</svg>
